<svg width="32" height="32" viewBox="0 0 32 32" fill="none" xmlns="http://www.w3.org/2000/svg">
<path d="M16 5.33337C16.7364 5.33337 17.3333 5.93033 17.3333 6.66671V14.6667H25.3333C26.0697 14.6667 26.6667 15.2637 26.6667 16C26.6667 16.7364 26.0697 17.3334 25.3333 17.3334H17.3333V25.3334C17.3333 26.0698 16.7364 26.6667 16 26.6667C15.2636 26.6667 14.6667 26.0698 14.6667 25.3334V17.3334H6.66667C5.93029 17.3334 5.33334 16.7364 5.33334 16C5.33334 15.2637 5.93029 14.6667 6.66667 14.6667H14.6667V6.66671C14.6667 5.93033 15.2636 5.33337 16 5.33337Z" fill="white"/>
</svg>
