<svg width="22" height="22" viewBox="0 0 22 22" fill="none" xmlns="http://www.w3.org/2000/svg">
<g opacity="0.6" clip-path="url(#clip0_1_924)">
<g clip-path="url(#clip1_1_924)">
<path d="M20.6342 3.35498H17.5725V1.59498C17.5725 0.806645 16.9308 0.164978 16.1425 0.164978H5.93083C5.1425 0.164978 4.50083 0.806645 4.50083 1.59498V3.35498H1.43917C0.962499 3.35498 0.577499 3.73998 0.577499 4.21664C0.577499 4.69331 0.962499 5.07831 1.43917 5.07831H4.50083H17.5725H20.6342C21.1108 5.07831 21.4958 4.69331 21.4958 4.21664C21.4958 3.73998 21.1108 3.35498 20.6342 3.35498ZM6.58167 1.88831H15.4825C15.6842 1.88831 15.8492 2.05331 15.8492 2.25498V3.35498H6.22417V2.25498C6.22417 2.05331 6.38 1.88831 6.58167 1.88831Z" fill="#212121"/>
<path d="M16.2525 21.8258H5.82084C5.08751 21.8258 4.50084 21.23 4.50084 20.5058V7.77329C4.50084 7.29662 4.88584 6.91162 5.36251 6.91162C5.83917 6.91162 6.22417 7.29662 6.22417 7.77329V19.5066C6.22417 19.8458 6.49917 20.1116 6.82917 20.1116H15.2533C15.5925 20.1116 15.8583 19.8366 15.8583 19.5066V7.77329C15.8583 7.29662 16.2433 6.91162 16.72 6.91162C17.1967 6.91162 17.5817 7.29662 17.5817 7.77329V20.5058C17.5725 21.2391 16.9858 21.8258 16.2525 21.8258Z" fill="#212121"/>
<path d="M8.9925 16.3075C8.51583 16.3075 8.13083 15.9591 8.13083 15.5283V7.69079C8.13083 7.25995 8.51583 6.91162 8.9925 6.91162C9.46916 6.91162 9.85416 7.25995 9.85416 7.69079V15.5283C9.85416 15.9591 9.46916 16.3075 8.9925 16.3075Z" fill="#212121"/>
<path d="M13.4017 18.26C12.925 18.26 12.54 17.875 12.54 17.3983V7.77329C12.54 7.29662 12.925 6.91162 13.4017 6.91162C13.8783 6.91162 14.2633 7.29662 14.2633 7.77329V17.4075C14.2633 17.875 13.8783 18.26 13.4017 18.26Z" fill="#212121"/>
</g>
</g>
<defs>
<clipPath id="clip0_1_924">
<rect width="22" height="22" fill="white"/>
</clipPath>
<clipPath id="clip1_1_924">
<rect width="22" height="22" fill="white"/>
</clipPath>
</defs>
</svg>
