<svg width="22" height="22" viewBox="0 0 22 22" fill="none" xmlns="http://www.w3.org/2000/svg">
<g opacity="0.4" clip-path="url(#clip0_1_888)">
<g clip-path="url(#clip1_1_888)">
<path d="M0 10.9267C0 17.2333 5.335 22.3208 11.7333 21.8992C17.0042 21.5508 21.34 17.4167 21.9267 12.1642C22.0733 10.835 21.9817 9.54251 21.6883 8.33251C21.5692 7.82834 21.0192 7.54418 20.5333 7.74584C20.1392 7.91084 19.9283 8.34168 20.0292 8.75418C20.2492 9.68001 20.3408 10.6608 20.2583 11.6692C19.8917 16.2342 16.17 19.9008 11.5958 20.185C6.20583 20.5333 1.71417 16.2433 1.71417 10.9267C1.71417 6.19668 5.27083 2.27334 9.85417 1.71418C10.2667 1.65918 10.5875 1.33834 10.615 0.925844C10.6517 0.394177 10.2025 -0.0549897 9.67083 0.00917694C4.22583 0.66001 0 5.30751 0 10.9267Z" fill="#1D1D1B"/>
<path d="M9.88165 12.9158C10.0558 12.3933 10.2666 11.9533 10.5141 11.5958C10.7616 11.2383 11.0825 10.8258 11.4858 10.3583C11.7791 10.01 12.0083 9.72579 12.1733 9.50579C12.3383 9.28579 12.4758 9.02913 12.5858 8.76329C12.6958 8.48829 12.7508 8.19496 12.7508 7.88329V7.86496C12.7508 7.31496 12.5858 6.89329 12.265 6.59079C11.9441 6.28829 11.4858 6.14163 10.9083 6.14163C10.3216 6.14163 9.84498 6.31579 9.54248 6.70079C9.38665 6.89329 9.27665 7.18663 9.20332 7.46163C9.06582 7.95663 8.61665 8.29579 8.10332 8.29579C7.32415 8.29579 6.78332 7.51663 7.04915 6.78329C7.12248 6.56329 7.22332 6.35246 7.33332 6.15996C7.67248 5.57329 8.13998 5.12413 8.74498 4.81246C9.34998 4.50079 10.065 4.35413 10.8991 4.35413C11.7608 4.35413 12.5033 4.49163 13.1266 4.76663C13.7408 5.04163 14.2175 5.44496 14.5383 5.96746C14.8591 6.48996 15.0241 7.13163 15.0241 7.87413V7.88329C15.0241 8.33246 14.96 8.73579 14.8225 9.09329C14.685 9.45079 14.52 9.76246 14.3275 10.0283C14.135 10.2941 13.8691 10.615 13.5391 10.9908C13.1725 11.3941 12.8791 11.7516 12.6591 12.0633C12.43 12.375 12.2466 12.7508 12.0908 13.1908C12.0266 13.3833 11.9716 13.585 11.935 13.7958C11.8433 14.3183 11.385 14.7033 10.8533 14.7033C10.1383 14.7033 9.61582 14.0433 9.78082 13.3466C9.79915 13.2 9.83581 13.0533 9.88165 12.9158ZM10.5783 16.2066H10.89C11.4491 16.2066 11.8983 16.6558 11.8983 17.215C11.8983 17.7741 11.4491 18.2233 10.89 18.2233H10.5783C10.0191 18.2233 9.56998 17.7741 9.56998 17.215C9.56998 16.6558 10.0191 16.2066 10.5783 16.2066Z" fill="#1D1D1B"/>
</g>
</g>
<defs>
<clipPath id="clip0_1_888">
<rect width="22" height="22" fill="white"/>
</clipPath>
<clipPath id="clip1_1_888">
<rect width="22" height="22" fill="white"/>
</clipPath>
</defs>
</svg>
